<svg xmlns="http://www.w3.org/2000/svg" viewBox="0 0 30 30" height="256px" width="256px"><defs><linearGradient id="a" y2="74.845%" x2="75.904%" y1="0%" x1="0%"><stop offset="0%" stop-color="#5379FF"/><stop offset="100%" stop-color="#31D091"/></linearGradient><linearGradient id="b" y2="100%" x2="100%" y1="28.723%" x1="30.097%"><stop offset="0%" stop-color="#31D091"/><stop offset="100%" stop-color="#5278FF"/></linearGradient><linearGradient id="c" y2="100%" x2="0%" y1="26.954%" x1="73.325%"><stop offset="0%" stop-color="#31D091"/><stop offset="100%" stop-color="#5279FF"/></linearGradient><linearGradient id="d" y2="65.29%" x2="31.325%" y1="0%" x1="100%"><stop offset="0%" stop-color="#5278FF"/><stop offset="100%" stop-color="#31D091"/></linearGradient></defs><g fill-rule="evenodd" fill="none"><path transform="matrix(1 0 0 -1 0 30)" d="M3 3h10v10H3z" fill="url(#a)"/><path transform="matrix(1 0 0 -1 0 30)" d="M17 17h10v10H17z" fill="url(#b)"/><path transform="matrix(1 0 0 -1 0 30)" d="M1 18h11v11H1z" stroke-width="2" stroke="url(#c)"/><path transform="matrix(1 0 0 -1 0 30)" d="M18 1h11v11H18z" stroke-width="2" stroke="url(#d)"/></g></svg>