<?xml version="1.0" encoding="UTF-8"?>
<svg width="14px" height="14px" viewBox="0 0 14 14" version="1.1" xmlns="http://www.w3.org/2000/svg" xmlns:xlink="http://www.w3.org/1999/xlink">
    <g id="Home-page" stroke="none" stroke-width="1" fill="none" fill-rule="evenodd">
        <g id="HighLevel---Search" transform="translate(-828.000000, -19.000000)">
            <g id="Top-bar" transform="translate(194.000000, 0.000000)">
                <g id="Group" transform="translate(416.000000, 12.000000)">
                    <g id="Dropdown" transform="translate(85.000000, 0.000000)">
                        <g id="Chevron/down" transform="translate(133.933775, 7.000000)">
                            <rect id="Rectangle" x="0" y="2" width="12.5562914" height="12"></rect>
                            <path d="M3.11459087,2.24263852 L3.18120062,2.24480809 L9.33183684,2.264452 C9.92974147,2.26628175 10.4128888,2.7315605 10.4109879,3.30368118 C10.409201,3.8349361 9.98980961,4.27150917 9.4511897,4.32970127 L9.32491213,4.33628426 L4.21184309,4.31975871 L4.25073131,9.19903702 C4.25513155,9.77114514 3.77401182,10.2383437 3.17612032,10.242611 C2.62093536,10.2464639 2.16028484,9.84978974 2.09378713,9.33504028 L2.08557467,9.21428451 L2.04013217,3.2703703 L2.0526173,3.12244127 L2.04825181,3.14953745 C2.11419911,2.64147617 2.56507491,2.24650832 3.11459087,2.24263852 Z" id="Combined-Shape" fill="#707071" fill-rule="nonzero" transform="translate(6.225565, 6.242639) scale(1, -1) rotate(-315.000000) translate(-6.225565, -6.242639) "></path>
                        </g>
                    </g>
                </g>
            </g>
        </g>
    </g>
</svg>