<?xml version="1.0" encoding="UTF-8"?>
<svg width="24px" height="24px" viewBox="0 0 24 24" version="1.1" xmlns="http://www.w3.org/2000/svg" xmlns:xlink="http://www.w3.org/1999/xlink">
    <g id="Home-page" stroke="none" stroke-width="1" fill="none" fill-rule="evenodd">
        <g id="HighLevel---Upload-Icon-step-2" transform="translate(-688.000000, -81.000000)">
            <g id="Group-5" transform="translate(408.000000, 25.000000)">
                <g id="Group-6" transform="translate(20.000000, 53.000000)">
                    <g id="create_new_folder-24px" transform="translate(260.000000, 3.000000)">
                        <polygon id="Path" points="0 0 24 0 24 24 0 24"></polygon>
                        <path d="M10,4 L12,6 L20,6 C21.11,6 22,6.89 22,8 L22,8 L22,18 C22,19.11 21.11,20 20,20 L20,20 L4,20 C2.89,20 2,19.11 2,18 L2,18 L2.005,11 L4,11 L4,18 L20,18 L20,8 L11.17,8 L9.17,6 L8,6 L8,4 L10,4 Z M0,7 L2,7 L2,9 L4,9 L4,7 L6,7 L6,5 L4,5 L4,3 L2,3 L2,5 L0,5 L0,7 Z" id="Shape" fill="#989899"></path>
                    </g>
                </g>
            </g>
        </g>
    </g>
</svg>