<?xml version="1.0" encoding="UTF-8"?>
<svg width="10px" height="10px" viewBox="0 0 10 10" version="1.1" xmlns="http://www.w3.org/2000/svg" xmlns:xlink="http://www.w3.org/1999/xlink">
    <g id="Home-page" stroke="none" stroke-width="1" fill="none" fill-rule="evenodd">
        <g id="HighLevel---Upload-Icon-step-2" transform="translate(-584.000000, -129.000000)">
            <g id="Group-5" transform="translate(408.000000, 25.000000)">
                <g id="Common-tags-group" transform="translate(20.000000, 91.000000)">
                    <g id="Group" transform="translate(105.000000, 8.000000)">
                        <g id="Close" transform="translate(51.000000, 5.000000)">
                            <rect id="Rectangle" x="0" y="0" width="10" height="10"></rect>
                            <path d="M8.24090608,1.75909392 C8.40362454,1.92181237 8.40362454,2.18563112 8.24090608,2.34834957 L5.58905508,5.00005508 L8.24090608,7.65165043 C8.40362454,7.81436888 8.40362454,8.07818763 8.24090608,8.24090608 C8.07818763,8.40362454 7.81436888,8.40362454 7.65165043,8.24090608 L5.00005508,5.58905508 L2.34834957,8.24090608 C2.18563112,8.40362454 1.92181237,8.40362454 1.75909392,8.24090608 C1.59637546,8.07818763 1.59637546,7.81436888 1.75909392,7.65165043 L4.41105508,5.00005508 L1.75909392,2.34834957 C1.59637546,2.18563112 1.59637546,1.92181237 1.75909392,1.75909392 C1.92181237,1.59637546 2.18563112,1.59637546 2.34834957,1.75909392 L5.00005508,4.41105508 L7.65165043,1.75909392 C7.81436888,1.59637546 8.07818763,1.59637546 8.24090608,1.75909392 Z" id="Combined-Shape" fill="#3254B7"></path>
                        </g>
                    </g>
                </g>
            </g>
        </g>
    </g>
</svg>