<?xml version="1.0" encoding="UTF-8"?>
<svg width="115px" height="115px" viewBox="0 0 115 115" version="1.1" xmlns="http://www.w3.org/2000/svg" xmlns:xlink="http://www.w3.org/1999/xlink">
    <g id="Home-page" stroke="none" stroke-width="1" fill="none" fill-rule="evenodd">
        <g id="Profile" transform="translate(-278.000000, -199.000000)">
            <g id="favorite" transform="translate(278.000000, 199.000000)">
                <polygon id="Path" points="0 0 115 0 115 115 0 115"></polygon>
                <path d="M63.9649501,95.5020388 C60.3246832,98.7911729 54.7205882,98.7911729 51.0803213,95.4543702 L50.5534406,94.9776841 C25.4068601,72.3350947 8.97776083,57.5101571 9.60043807,39.0147366 C9.88782756,30.911073 14.0549752,23.1410897 20.8086282,18.5649032 C33.4537658,9.98455348 49.0685948,13.9887167 57.4986866,23.8084502 C65.9287783,13.9887167 81.5436073,9.93688487 94.188745,18.5649032 C100.942398,23.1410897 105.109546,30.911073 105.396935,39.0147366 C106.067511,57.5101571 89.5905131,72.3350947 64.4439326,95.0730214 L63.9649501,95.5020388 Z" id="Path" fill="#F3446A"></path>
            </g>
        </g>
    </g>
</svg>