<?xml version="1.0" encoding="UTF-8"?>
<svg width="18px" height="18px" viewBox="0 0 18 18" version="1.1" xmlns="http://www.w3.org/2000/svg" xmlns:xlink="http://www.w3.org/1999/xlink">
    <title>68DB66A5-E27C-4B01-8960-96B0FD564204</title>
    <g id="Home-page" stroke="none" stroke-width="1" fill="none" fill-rule="evenodd">
        <g id="HighLevel---Search-hover" transform="translate(-202.000000, -18.000000)">
            <g id="Top-bar" transform="translate(194.000000, 0.000000)">
                <g id="Hamburger-menu" transform="translate(8.000000, 18.000000)">
                    <rect id="Rectangle" x="0" y="0" width="18" height="18"></rect>
                    <path d="M14.2854812,13.5709625 C14.6800991,13.5709625 15,13.8908634 15,14.2854812 C15,14.6800991 14.6800991,15 14.2854812,15 L0.71451876,15 C0.319900945,15 4.83267444e-17,14.6800991 0,14.2854812 C-4.83267444e-17,13.8908634 0.319900945,13.5709625 0.71451876,13.5709625 L14.2854812,13.5709625 Z M14.2854812,8.28548124 C14.6800991,8.28548124 15,8.60538219 15,9 C15,9.39461781 14.6800991,9.71451876 14.2854812,9.71451876 L0.71451876,9.71451876 C0.319900945,9.71451876 4.83267444e-17,9.39461781 0,9 C-4.83267444e-17,8.60538219 0.319900945,8.28548124 0.71451876,8.28548124 L14.2854812,8.28548124 Z M14.2854812,3 C14.6800991,3 15,3.31990095 15,3.71451876 C15,4.10913657 14.6800991,4.42903752 14.2854812,4.42903752 L0.71451876,4.42903752 C0.319900945,4.42903752 4.83267444e-17,4.10913657 0,3.71451876 C-4.83267444e-17,3.31990095 0.319900945,3 0.71451876,3 L14.2854812,3 Z" id="Combined-Shape" fill="#707071"></path>
                </g>
            </g>
        </g>
    </g>
</svg>