<?xml version="1.0" encoding="UTF-8"?>
<svg width="19px" height="12px" viewBox="0 0 19 12" version="1.1" xmlns="http://www.w3.org/2000/svg" xmlns:xlink="http://www.w3.org/1999/xlink">
    <g id="Log-in-screen" stroke="none" stroke-width="1" fill="none" fill-rule="evenodd">
        <g id="High-Fidelity-Login" transform="translate(-1173.000000, -450.000000)" fill="#989899">
            <g id="Hide" transform="translate(1173.000000, 450.000000)">
                <path d="M1.24640793,0.0740831311 C1.24746051,0.0746857547 1.2485109,0.0752922064 1.24955907,0.0759024739 L4.13827131,1.75624041 C5.83088515,0.661149498 7.61812805,0.113604041 9.5,0.113604041 C12.9493168,0.113604041 16.0807189,1.9531312 18.8942064,5.63218551 C19.0117074,5.78583559 19.0284936,5.99063008 18.9445648,6.15889314 L18.8942074,6.23957448 C18.0997043,7.27854078 17.2798445,8.17080654 16.4346291,8.91637255 L18.7189975,10.2469985 C18.9564117,10.3852264 19.0378344,10.689109 18.9013379,10.9275229 L18.4359358,11.7404254 C18.2987338,11.9800714 17.9932381,12.0631188 17.7535921,11.9259169 C17.7525395,11.9253142 17.7514891,11.9247078 17.7504409,11.9240975 L0.281002465,1.75300147 C0.0435882719,1.61477364 -0.037834359,1.31089095 0.0986620937,1.07247713 L0.564064247,0.259574641 C0.701266186,0.0199285704 1.00676186,-0.0631188074 1.24640793,0.0740831311 Z M1.09960831,4.42400683 L4.72510172,6.53604058 C5.01824511,8.93253665 7.04426771,10.7878679 9.5,10.7878679 C10.1645001,10.7878679 10.797537,10.652021 11.3732915,10.4063644 L12.7184981,11.1914023 C11.6783217,11.5693048 10.6054885,11.7582555 9.5,11.7582555 C6.05068321,11.7582555 2.91928108,9.91872833 0.105793592,6.23967402 C-0.0117074073,6.08602394 -0.0284935746,5.88122945 0.0554352392,5.71296639 L0.105792562,5.63228505 L0.362393713,5.30285313 C0.605784963,4.99632438 0.851523161,4.70337561 1.09960831,4.42400683 Z M9.5,1.08399166 C8.04640696,1.08399166 6.74337017,1.73403914 5.86115247,2.76159063 L8.81560588,4.48014967 C8.9260775,3.9884051 8.8355456,3.47511513 8.57634936,3.05129733 C9.28762955,2.88694374 10.0737171,2.98021055 10.7788632,3.3710794 C11.9619191,4.02685798 12.5553005,5.31976603 12.3325343,6.52752537 L14.0469948,7.52607465 C14.218282,7.02790986 14.3113374,6.49287865 14.3113374,5.93592977 C14.3113374,3.25627834 12.1572283,1.08399166 9.5,1.08399166 Z" id="Combined-Shape"></path>
            </g>
        </g>
    </g>
</svg>