<?xml version="1.0" encoding="UTF-8"?>
<svg width="115px" height="115px" viewBox="0 0 115 115" version="1.1" xmlns="http://www.w3.org/2000/svg" xmlns:xlink="http://www.w3.org/1999/xlink">
    <g id="Home-page" stroke="none" stroke-width="1" fill="none" fill-rule="evenodd">
        <g id="Profile" transform="translate(-149.000000, -195.000000)">
            <g id="favorite_border" transform="translate(149.000000, 195.000000)">
                <polygon id="Path" points="0 0 115 0 115 115 0 115"></polygon>
                <path d="M93.7551829,19.7155533 C81.0880537,11.1474815 65.4460685,15.145915 57.0013157,24.9515972 C48.5565629,15.145915 32.9145777,11.0998811 20.2474485,19.7155533 C13.5300316,24.2851916 9.30765517,31.9964562 9.01976587,40.1361245 C8.34802418,58.6050793 24.8536773,73.4088034 50.043991,96.1141937 L50.5238065,96.5425973 C54.1704043,99.8270248 59.7842456,99.8270248 63.4308434,96.4949969 L63.9586404,96.0189929 C89.1489541,73.361203 105.606626,58.5574789 104.982866,40.0885241 C104.694976,31.9964562 100.4726,24.2851916 93.7551829,19.7155533 L93.7551829,19.7155533 Z M57.4811312,89.0217343 L57.0013157,89.4977382 L56.5215002,89.0217343 C33.6822825,68.5059623 18.6160758,54.9398486 18.6160758,41.1833332 C18.6160758,31.6632534 25.8133083,24.5231936 35.4096183,24.5231936 C42.7987769,24.5231936 49.9960094,29.2356331 52.5390316,35.7568878 L61.5115814,35.7568878 C64.006622,29.2356331 71.2038544,24.5231936 78.5930131,24.5231936 C88.1893231,24.5231936 95.3865556,31.6632534 95.3865556,41.1833332 C95.3865556,54.9398486 80.3203489,68.5059623 57.4811312,89.0217343 Z" id="Shape" fill="#DBDBDC" fill-rule="nonzero"></path>
            </g>
        </g>
    </g>
</svg>