<?xml version="1.0" encoding="UTF-8"?>
<svg width="19px" height="12px" viewBox="0 0 19 12" version="1.1" xmlns="http://www.w3.org/2000/svg" xmlns:xlink="http://www.w3.org/1999/xlink">
    <title>AB8466AE-B94E-400E-897C-A73F2204F1EE</title>
    <g id="Log-in-screen" stroke="none" stroke-width="1" fill="none" fill-rule="evenodd">
        <g id="High-Fidelity-Sign-up-Password-Strength-2" transform="translate(-998.000000, -512.000000)" fill="#989899">
            <g id="Hide" transform="translate(998.000000, 512.000000)">
                <path d="M9.49702007,1.45661261e-13 C12.9463369,1.45661261e-13 16.077739,1.83952716 18.8912265,5.51858147 C19.0087275,5.67223155 19.0255136,5.87702604 18.9415848,6.0452891 L18.8912275,6.12597044 C16.0777749,9.80510319 12.9463566,11.6446514 9.49702007,11.6446514 C6.04770328,11.6446514 2.91630114,9.80512429 0.102813662,6.12606998 C-0.0146873378,5.9724199 -0.0314735051,5.76762541 0.0524553086,5.59936235 L0.102812631,5.51868101 L0.359413783,5.18924908 C3.10634008,1.72974969 6.15220885,1.45661261e-13 9.49702007,1.45661261e-13 Z M9.49702007,0.970387621 C6.83979179,0.970387621 4.68568266,3.1426743 4.68568266,5.82232572 C4.68568266,8.50197715 6.83979179,10.6742638 9.49702007,10.6742638 C12.1542483,10.6742638 14.3083575,8.50197715 14.3083575,5.82232572 C14.3083575,3.1426743 12.1542483,0.970387621 9.49702007,0.970387621 Z M10.7758833,3.25747536 C12.2406502,4.06940895 12.8014788,5.85802695 12.0285289,7.25246548 C11.255579,8.64690401 9.44155103,9.11911757 7.97678407,8.30718398 C6.99822127,7.76475776 6.42309868,6.78642379 6.37958068,5.78092932 C7.23313704,6.03543623 8.17353139,5.67814474 8.61896593,4.87455957 C8.96600466,4.24848513 8.92409817,3.51117801 8.57336943,2.93769329 C9.28464962,2.7733397 10.0707372,2.86660651 10.7758833,3.25747536 Z" id="Combined-Shape"></path>
            </g>
        </g>
    </g>
</svg>