<svg xmlns="http://www.w3.org/2000/svg" viewBox="0 0 767 472" height="512px" width="512px"><g fill="none" fill-rule="nonzero"><path fill="#D1E5FC" d="M767 303.167a157.338 157.338 0 01-4.604 37.945 147.921 147.921 0 01-3.601 12.288 145.155 145.155 0 01-5.809 14.543 133.148 133.148 0 01-3.51 7.05 94.88 94.88 0 01-7.925 38.108 98.221 98.221 0 01-47.654 49.126A100.199 100.199 0 01651.355 472H145.613a127.377 127.377 0 01-64.09-17.142l-.3-.17a130.74 130.74 0 01-8.114-5.16 127.264 127.264 0 01-16.65-13.734A123.962 123.962 0 0138.152 413.1a121.142 121.142 0 01-18.617-64.652C7.196 326.785 0 300.834 0 272.949c0-35.183 11.435-67.278 30.222-91.574a128.72 128.72 0 0112.835-14.288c4.566-4.39 9.474-8.41 14.678-12.02a114.194 114.194 0 0113.024-7.82c1.881-.957 3.77-1.863 5.69-2.703a102.91 102.91 0 015.12-2.105c2.07-.786 4.167-1.51 6.29-2.17a98.3 98.3 0 016.284-1.732c3.039-.743 6.13-1.347 9.273-1.812a113.61 113.61 0 017.814-.853 99.623 99.623 0 016.265-.267h1.14c2.317 0 4.623.09 6.908.247.241-.482.502-.97.743-1.446.911-1.74 1.856-3.473 2.806-5.167a.163.163 0 010-.045c.163-.3.326-.593.495-.88.769-1.388 1.57-2.763 2.39-4.124.378-.652.749-1.264 1.133-1.877.081-.152.17-.3.267-.443.39-.651.788-1.303 1.192-1.954 2.01-3.215 4.1-6.372 6.27-9.474l.554-.795c.339-.482.651-.95 1.03-1.433a191.464 191.464 0 012.754-3.76c.65-.885 1.302-1.765 2.005-2.605a342.066 342.066 0 015.21-6.516c1.78-2.172 3.63-4.315 5.548-6.43.26-.294.521-.58.795-.867l2.78-3.036c.137-.144.254-.274.384-.404.332-.359.652-.717 1.01-1.062a237.303 237.303 0 014.558-4.678 248.273 248.273 0 0124.94-21.742c.346-.274.697-.534 1.043-.795a263.912 263.912 0 0133.934-21.735 50.16 50.16 0 012.103-1.134 276.036 276.036 0 0127.669-12.744c5.15-2.04 10.419-3.955 15.72-5.707 3.529-1.16 7.071-2.261 10.66-3.297a297.094 297.094 0 0116.943-4.346A301.58 301.58 0 01351.43.411c5.21-.265 10.477-.402 15.804-.411a302.665 302.665 0 0176.19 9.643 2.748 2.748 0 002.363 1.231h2.188c.951.261 1.895.522 2.846.795a287.317 287.317 0 0115.7 5.01l1.303.47a280.223 280.223 0 0137.06 16.288 267.414 267.414 0 0131.028 19.181 262.468 262.468 0 014.507 3.31 120.787 120.787 0 015.483-3.31 107.82 107.82 0 0122.713-9.688 103.552 103.552 0 0150.95-1.994c21.652 4.594 41.253 15.996 57.083 32.212a133.261 133.261 0 0117.12 21.749c.358.56.716 1.127 1.061 1.7a143.368 143.368 0 0110.901 21.742c.111.28.222.54.32.814a150.622 150.622 0 016.707 21.73c.078.377.169.748.247 1.126a156.518 156.518 0 013.204 21.742c0 .26 0 .528.052.801.274 3.784.412 7.606.417 11.467 0 3.454-.117 6.88-.332 10.282 0 .371-.052.756-.085 1.14-.059.984-.143 1.955-.228 2.945a123.617 123.617 0 0113.923 13.141 123.679 123.679 0 015.509 6.45 137.228 137.228 0 0114.196 21.742C760.67 252.516 767 276.982 767 303.167z"/><path opacity=".1" fill="#6C63FF" d="M693 458.927c0 4.402-15.318 8.528-42.047 12.073H145.37a128.365 128.365 0 01-64.07-16.96l-.3-.167c7.682-2.771 21.548-5.356 40.42-7.69l.846-.103c8.463-1.025 17.922-1.998 28.26-2.92.26 0 .527-.038.787-.07 8.203-.722 16.928-1.4 26.176-2.031.293 0 .58-.052.873-.064 3.567-.254 7.208-.495 10.923-.722l1.432-.09c27.049-1.664 57.795-2.991 91.139-3.868h.039c4.67-.129 9.39-.243 14.159-.342 5.303-.124 10.672-.234 16.105-.328 4.147-.09 8.346-.155 12.558-.22h.097c19.003-.283 38.637-.425 58.713-.425 49.644 0 96.567.896 138.146 2.507h.117c6.393.245 12.668.516 18.788.793l5.208.245c6.904.327 13.631.677 20.18 1.05C642.978 443.935 693 450.98 693 458.928z"/><g transform="translate(540 102)" opacity=".598"><path fill="#915C5C" d="M73.817 337.42a24.332 24.332 0 01-.475 3.961 760.855 760.855 0 00-26.338-3.74v-1.074a21.194 21.194 0 013.135-10.638c2.602-4.084 6.505-6.644 10.818-6.514 4.313.13 8.066 2.938 10.408 7.166a21.216 21.216 0 012.452 10.84z"/><ellipse ry="13.407" rx="17.576" cy="315.549" cx="61.125" transform="rotate(-88.19 61.125 315.55)" fill="#915C5C"/><ellipse ry="13.407" rx="17.576" cy="294.078" cx="61.801" transform="rotate(-88.19 61.801 294.078)" fill="#915C5C"/><ellipse ry="13.407" rx="17.576" cy="272.606" cx="62.484" transform="rotate(-88.19 62.484 272.606)" fill="#915C5C"/><ellipse ry="13.413" rx="17.583" cy="250.179" cx="62.39" transform="rotate(-88.282 62.39 250.18)" fill="#6396DA"/><path fill="#76DEA6" d="M17.583 102.607a64.68 64.68 0 01-4.755-7.511l35.386-4.678-38.086-.918a64.512 64.512 0 01.377-50.968l50.25 28.148L14.74 30.513C27.422 10.065 50.444-1.578 74.404.339c23.96 1.917 44.844 17.073 54.124 39.277 9.28 22.205 5.4 47.74-10.055 66.176a64.325 64.325 0 016.954 11.954l-46.452 22.337 49.249-14.852a64.4 64.4 0 01-12.249 60.029c19.87 27.003 15.677 64.766-9.63 86.74-25.308 21.972-63.23 20.775-87.105-2.75-23.875-23.527-25.684-61.48-4.155-87.176-17.573-23.897-16.541-56.731 2.498-79.474v.007z"/><path fill="#00C578" d="M130.963 145.966A64.117 64.117 0 01116 185.273c19.87 27.004 15.677 64.766-9.63 86.74-25.308 21.972-63.23 20.775-87.105-2.75-23.875-23.527-25.684-61.48-4.155-87.176-8.287-11.21 116.079-43.333 115.852-36.121z"/></g><g transform="translate(410 216)" opacity=".598"><path fill="#915C5C" d="M49.987 226.296c-.033.909-.14 1.813-.318 2.704A502.055 502.055 0 0032 226.447v-.734a14.657 14.657 0 012.103-7.262c1.746-2.789 4.364-4.537 7.257-4.448 2.893.09 5.411 2.006 6.982 4.892a14.696 14.696 0 011.645 7.401z"/><ellipse ry="9.004" rx="11.768" cy="211.289" cx="41.054" transform="rotate(-88.19 41.054 211.289)" fill="#915C5C"/><ellipse ry="9.004" rx="11.768" cy="196.912" cx="41.508" transform="rotate(-88.19 41.508 196.912)" fill="#915C5C"/><ellipse ry="9.004" rx="11.768" cy="182.535" cx="41.967" transform="rotate(-88.19 41.967 182.535)" fill="#915C5C"/><ellipse ry="9.008" rx="11.774" cy="167.518" cx="41.904" transform="rotate(-88.282 41.904 167.518)" fill="#6396DA"/><path fill="#76DEA6" d="M11.816 68.77a43.378 43.378 0 01-3.207-5.04l23.866-3.14-25.686-.616a43.098 43.098 0 01.254-34.205l33.89 18.89L9.9 20.389C18.452 6.665 33.98-1.15 50.14.138c16.159 1.286 30.244 11.457 36.503 26.359a43.039 43.039 0 01-6.782 44.41 43.118 43.118 0 014.69 8.023L53.222 93.921l33.215-9.968a43.055 43.055 0 01-8.261 40.286c13.4 18.123 10.573 43.465-6.495 58.212-17.069 14.746-42.645 13.943-58.747-1.846-16.102-15.788-17.322-41.258-2.802-58.504C-1.72 106.064-1.024 84.03 11.816 68.766v.004z"/><path fill="#00C578" d="M88 97.702c-.287 9.69-3.832 19-10.06 26.423 13.36 18.152 10.541 43.537-6.476 58.308S28.95 196.4 12.895 180.584c-16.054-15.814-17.27-41.327-2.794-58.6C4.529 114.446 88.153 92.853 88 97.701z"/></g><g transform="translate(295 293)" opacity=".598"><path fill="#915C5C" d="M33.991 154.197A11.262 11.262 0 0133.78 156 334.706 334.706 0 0022 154.298v-.49a9.772 9.772 0 011.402-4.84c1.164-1.86 2.91-3.025 4.838-2.966 1.929.06 3.607 1.337 4.655 3.262a9.797 9.797 0 011.096 4.933z"/><ellipse ry="6.103" rx="8.017" cy="143.935" cx="27.826" transform="rotate(-88.19 27.826 143.935)" fill="#915C5C"/><ellipse ry="6.103" rx="8.017" cy="134.141" cx="28.133" transform="rotate(-88.19 28.133 134.14)" fill="#915C5C"/><ellipse ry="6.103" rx="8.017" cy="124.347" cx="28.444" transform="rotate(-88.19 28.444 124.347)" fill="#915C5C"/><ellipse ry="6.106" rx="8.02" cy="114.117" cx="28.402" transform="rotate(-88.282 28.402 114.117)" fill="#6396DA"/><path fill="#76DEA6" d="M8.009 46.678a29.449 29.449 0 01-2.174-3.421l16.176-2.13-17.41-.42a29.292 29.292 0 01.173-23.216l22.97 12.822L6.709 13.838A29.373 29.373 0 0133.983.093c10.952.874 20.5 7.777 24.74 17.892a29.246 29.246 0 01-4.595 30.144 29.277 29.277 0 013.178 5.445L36.073 63.75l22.512-6.765a29.257 29.257 0 01-5.6 27.344c9.084 12.3 7.167 29.502-4.402 39.512-11.568 10.009-28.903 9.463-39.817-1.253-10.913-10.717-11.74-28.005-1.899-39.71-8.033-10.885-7.561-25.842 1.142-36.202v.003z"/><path fill="#00C578" d="M60 66.475a29.062 29.062 0 01-6.86 17.89c9.11 12.292 7.188 29.48-4.414 39.48-11.603 10.002-28.988 9.457-39.934-1.251-10.946-10.708-11.775-27.982-1.905-39.678C3.087 77.813 60.104 63.193 60 66.475z"/></g><path d="M103 441l6.82-.02h9.616l12.159-197.842L252 41.877l-5.234-5.627V22L116.55 238.475z" fill="#F1C0C0"/><path d="M110 441h8.922l12.206-197.974L252 41.631 246.746 36 122.068 240.009z" opacity=".1" fill="#000"/><path d="M82 441.918l312.791 24.062.267.02 302.714-18.715.228-.013v-12.85l-333.553-6.153L86.165 428h-2.033l-.222 1.442z" fill="#F1C0C0"/><path d="M82 441.918l312.791 24.062.267.02 302.714-18.715.228-.249V434.69h-.267L394.79 444.86 86.165 428h-.045l-.548.36-1.662 1.082z" opacity=".1" fill="#000"/><path d="M82 442.334L395 466v-20.772L85.575 429l-1.664 1.063z" opacity=".1" fill="#000"/><path d="M246 35.824l137.946 147.784-4.265 259.954 11.718 1.412.196.026h11.718l1.401-250.23 258.306 86.122 4.356 153.343 9.429 1.054 3.195.358-7.395-165.39-270.023-94.622L254.522 22H246z" fill="#F1C0C0"/><path d="M404 190l1.062 4.778 258.16 86.015 4.354 153.154L677 435l-7.39-157.392zM247 35.825l137.394 147.793-4.247 259.97 11.67 1.412L395 175.111 247 22z" opacity=".1" fill="#000"/><path d="M404 293.849l94.633 18.583.033.007L664.412 345l7.588-3.033-.026-.533-.495-10.555L404.098 277z" fill="#F1C0C0"/><path d="M499 313l165.427 33 7.573-3.074-.026-.54z" opacity=".1" fill="#000"/><path d="M505 228l2.574 140.777 1.33 72.223 11.72-.39 7.376-.248-2.293-210.325-5.083-1.68-1.114-.357z" fill="#F1C0C0"/><path d="M506 228v.033l2.387 140.755L509.672 441l11.328-.39V228z" opacity=".1" fill="#000"/><path fill="#3F3D56" d="M323.047 263.857c.678.367 1.326.787 1.938 1.254.724.631 1.374 1.34 1.938 2.116 2.77 3.57 5.328 7.718 5.057 12.22a4.96 4.96 0 01-1.44 3.537c-1.143.971-2.784 1.016-4.282 1.016-1.628 0-3.34 0-4.748-.836-1.408-.836-2.583-2.463-4.25-2.425a2.186 2.186 0 01-.71 0c-.575-.186-.691-.939-1.066-1.415-.646-.855-2.009-.643-3.023-.27-1.014.373-2.138.933-3.139.502a3.255 3.255 0 01-1.363-1.357c-2.396-3.859-2.906-8.496-3.358-12.978-.278-2.727-2.397-12.027 3.449-9.91 2.583.925 4.999 2.778 7.35 4.135l7.647 4.411z"/><path fill="#3F3D56" d="M317.187 265.49a2.89 2.89 0 003.541-.14 5.29 5.29 0 001.722-3.32c.645-.199.974.64 1.387 1.153.722.872 2.193.86 2.85 1.789.459.64.355 1.531.678 2.256.42.935 1.458 1.422 2.167 2.179a7.404 7.404 0 011.419 2.813l1.058 3.154c.506 1.311.831 2.684.967 4.082a5.265 5.265 0 01-1.225 3.903c-1.42 1.52-3.748 1.68-5.805 1.635a7.514 7.514 0 01-2.038-.237c-1.826-.564-2.993-2.391-3.477-4.23-.483-1.84-.432-3.769-.716-5.653a22.052 22.052 0 00-1.612-5.371c-.568-1.333-2.128-3.32-2.103-4.736.465 0 .8.423 1.187.724z"/><path fill="#BE6F72" d="M319.882 258.337a10.615 10.615 0 01-.527-2.84c0-1.94.892-3.764 1.79-5.497l-7.442 1.003c-.899.122-1.901.304-2.41 1.047a2.572 2.572 0 000 2.387c.374.738.67 1.511.886 2.309.017.698.098 1.393.241 2.076.232.502.556.956.957 1.339 2.13 2.341 3.725 5.103 5.314 7.839-.046-.078 4.486-3.564 4.304-4.702-.105-.647-1.413-1.423-1.83-2.044a10.371 10.371 0 01-1.283-2.917z"/><path d="M383 233v6.355L273.321 260.58l-5.69 3.419H248v-3.58l107.76-25.833z" fill="#F1C0C0"/><path d="M383 239l-109.679 21.531-5.69 3.469H248l108.56-23.384z" opacity=".1" fill="#000"/><path fill="#1C1C1D" d="M295.6 415.074c-2.562-3.033-6.925-3.94-10.528-2.188a2.766 2.766 0 00-.966.738c-.662.906-.239 2.156-.18 3.276.153 2.731-2.072 4.952-4.071 6.861-1.073 1.023-2.166 2.117-2.649 3.509-.483 1.392-.126 3.159 1.172 3.884a4.966 4.966 0 001.814.492c2.117.404 4.287.463 6.423.175 2.113-.395 4.185-1.567 5.099-3.47.176-.516.468-.987.854-1.379 1.165-.9 2.953.155 4.278-.485 1.092-.531 1.138-1.366 1.152-2.467.04-3.042-.424-6.486-2.397-8.946zM310.965 414.627c.793 2.069.903 4.323 1.006 6.532.058 1.277.097 2.643-.6 3.722-.696 1.079-2.057 1.647-3.36 1.915-2.69.55-5.806.032-7.541-2.081-1.33-1.615-1.607-3.83-1.361-5.925.206-1.718.645-3.729-.6-4.948-.323-.326-.742-.556-1.039-.907-.645-.779-.542-1.953-.193-2.911.453-.916.793-1.883 1.012-2.88.052-.472 8.735.332 9.534.722 1.09.53.923 1.417 1.252 2.49.458 1.494 1.335 2.841 1.89 4.271z"/><path fill="#3F3D56" d="M311.99 321.016c1.708 1.115 2.368 3.307 2.633 5.341.731 5.577-.55 11.211-.647 16.84-.09 7.885 2.174 15.913.24 23.55-1.158 4.565-.175 9.783-1.262 14.394-.323 1.37-.918 2.66-1.229 4.03-.647 2.968.032 6.072.945 8.974.29.782.476 1.6.55 2.433a8.808 8.808 0 01-.945 3.678l-3.882 9.255c-.433 1.037-2.141 1.206-3.234 1.343-2.058.248-4.354.424-5.991-.86-1.637-1.285-2.032-3.438-2.284-5.446a84.147 84.147 0 01-.647-11.629 9.655 9.655 0 00-.265-3.02c-.356-1.115-1.139-2.08-1.352-3.26-.272-1.526.498-3.026.783-4.566a13.864 13.864 0 00-.065-4.232 168.603 168.603 0 00-.873-6.248c-.466-2.902.2-5.766.646-8.674.421-2.733-.116-5.518-.646-8.23a22.863 22.863 0 01-.81 6.521c-.342 1.037-.834 2.028-1.131 3.085-1.327 4.741 1.5 9.717 1.1 14.628-.188 2.296-1.08 4.566-.829 6.829.175 1.656.938 3.176 1.462 4.754.525 1.578.796 3.385 0 4.859-2.102 4.004-.53 9.45 1.353 13.559.382.728.715 1.482.996 2.256.556 1.853.09 3.842.24 5.772a3.59 3.59 0 01-3.035-.92c-.285-.3-.517-.652-.796-.965a7.89 7.89 0 00-2.704-1.702 3.529 3.529 0 00-1.94-.45c-.712.2-1.351.6-1.844 1.155a18.091 18.091 0 01-2.032 1.558 2.397 2.397 0 01-1.035.463.91.91 0 01-.951-.489 1.169 1.169 0 01-.071-.339c-.24-1.97-.368-3.95-.382-5.935 0-3.41-4.05-5.759-4.56-9.13-.408-2.72.349-5.492.096-8.231-.123-1.409-.51-2.791-.485-4.2 0-.913.207-1.807.278-2.713a20.46 20.46 0 00-.045-3.02l-.2-3.15c-.195-3.11-.408-6.287-1.625-9.13a31.23 31.23 0 01-2.523-10.487c-.129-2.283-.045-4.566-.304-6.855-.233-2.067-.75-4.122-.601-6.196.123-1.604.647-3.156.77-4.76.252-3.085-.913-6.085-1.825-9.04-.912-2.954-1.585-6.228-.388-9.078.171-.468.456-.885.828-1.213a3.592 3.592 0 011.527-.574 117.532 117.532 0 0133.783-2.172c1.843.105 3.632.668 5.208 1.637z"/><circle r="10.5" cy="241.5" cx="275.5" fill="#BE6F72"/><path fill="#BE6F72" d="M273.111 255.065a3.538 3.538 0 010 1.789c-.167.41-.403.791-.698 1.128A29.412 29.412 0 01269 261.56a6.077 6.077 0 003.187 3.032 19.04 19.04 0 004.397 1.212c.755.19 1.54.243 2.315.153a6.254 6.254 0 001.996-.871l5.921-3.417a11.827 11.827 0 002.462-1.712 5.733 5.733 0 001.716-4.013 1.073 1.073 0 00-.212-.757 1.425 1.425 0 00-.812-.327c-2.082-.442-3.726-2.07-4.657-3.917a20.147 20.147 0 01-1.617-5.943l-6.313 3.205c-.938.481-1.87.962-2.841 1.379-.619.27-1.87.493-2.309 1.038-.838 1.007.659 3.232.878 4.443z"/><path fill="#3F3D56" d="M269.155 259.658a6.878 6.878 0 00-1.988 2.707c-.401 1.304 0 2.68.363 3.972a119.28 119.28 0 013.884 16.823c.544 3.914.745 7.887 1.01 11.846.544 8.076 1.334 20.952 2.39 28.976 3.884.176 7.671-.966 11.523-1.383 7.2-.77 14.613.991 21.663-.653-1.71-6.803-3.418-18.42-5.128-25.218a48.444 48.444 0 01-1.566-8.186c-.15-1.99-.059-3.986-.033-5.988.059-3.914-.155-7.828-.369-11.742-.246-4.566-.492-9.132-1.566-13.6a2.538 2.538 0 00-.751-1.494c-.648-.476-1.49-.307-2.26-.202a9.77 9.77 0 01-6.72-1.605c-.855-.587-2-1.305-2.797-.652-.34.393-.564.874-.647 1.39a6.92 6.92 0 01-4.053 4.024 20.152 20.152 0 01-5.736 1.187c-.6.13-1.225.059-1.78-.202-.92-.568-.985-2.61-2.144-2.746-1.016-.118-2.609 2.087-3.295 2.746z"/><path fill="#3254B7" d="M284.343 275.997c-2.42-2.286-3.483-5.602-5.247-8.42a18.831 18.831 0 00-4.533-4.922 13.476 13.476 0 01-2.466-2.066c-.623-.758-1.095-1.768-2.04-2.06a2.488 2.488 0 00-2.21.603 21.59 21.59 0 00-1.64 1.723c-2.781 2.843-7.668 3.238-9.872 6.528a5.322 5.322 0 00-1.174 2.429 18.643 18.643 0 003.503 13.536 4.646 4.646 0 002.427 1.943 7.413 7.413 0 00.472 3.563 94.487 94.487 0 004.467 12.014 28.734 28.734 0 00-.88 4.657c-.458 3.957-.032 7.973-.465 11.936-.354 3.239-1.312 6.393-1.344 9.638 0 .518.045 1.133.498 1.399.24.122.51.178.78.162l8.068.24c4.684.135 9.413.271 14.024-.584a5.891 5.891 0 001.765-.55c1.56-.862 2.079-2.805 2.328-4.534.326-2.243.455-4.51.387-6.775.977 3.051 2.138 6.205 5.09 7.526 1.561.7 3.345.648 5.057.603a96.387 96.387 0 0011.013-1.12 1.46 1.46 0 001.228-.434 1.42 1.42 0 00.38-1.231l.039-3.537c.078-7.182-1.726-14.048-2.427-21.198-.223-2.254-.204-4.534-.761-6.742-.23-.926-.564-1.833-.768-2.766a19.53 19.53 0 01-.328-2.765l-.511-7.125c-.243-3.296-.59-6.476-.846-9.767a46.726 46.726 0 00-1.404-9.494c-.57-1.944-1.758-4.146-3.811-4.385-1.095-.123-2.158.35-3.2.68a13.092 13.092 0 01-7.872-.033 11.197 11.197 0 00-2.453-.647 2.422 2.422 0 00-2.243.92 3.287 3.287 0 00-.348 1.632c-.308 6.47-.879 13.134-2.683 19.423z"/><path fill="#3F3D56" d="M273.953 275.756c-2.982-3.225-6.042-6.51-9.884-8.561-1.514-.81-3.234-1.42-4.91-1.115-1.675.305-3.234 1.798-3.156 3.544.052 1.082.692 2.037.892 3.099.233 1.195-.103 2.469.26 3.623a6.15 6.15 0 001.293 2.038l4.58 5.568c1.94 2.322 3.88 4.678 6.378 6.284 2.496 1.606 5.73 2.356 8.473 1.215a10.52 10.52 0 004.645-4.374c1.138-1.858 1.94-3.889 3.007-5.806a28.688 28.688 0 016.469-8.05c-1.345-.359-3.034-.863-3.881-1.991a6.629 6.629 0 01-.615-1.142l-1.048-2.322a2.55 2.55 0 00-1.94.75c-.45.532-.931 1.036-1.443 1.506-.912.703-2.147.896-2.975 1.699-.32.345-.61.718-.867 1.115a7.209 7.209 0 01-5.278 2.92z"/><path fill="#BE6F72" d="M292.828 262.558c2.226-4.133 2.123-9.087 2.758-13.755a6.348 6.348 0 011.226-3.414c1.283-1.475 3.547-1.495 5.485-1.306.57.066 1.283.34 1.25.92-.044.209-.144.4-.288.556a15.693 15.693 0 00-3.17 8.564c1.008.712 2.567-.75 3.536 0 .641.549.346 1.632-.039 2.416a200.162 200.162 0 01-2.765 5.405 17.368 17.368 0 01-2.932 4.302c-.814.796-1.77 1.423-2.598 2.206-1.924 1.835-3.085 4.426-5.074 6.215a1.033 1.033 0 01-.642.333 1.07 1.07 0 01-.673-.307 9.86 9.86 0 01-2.425-2.983c-.757-1.423-.642-1.841.552-2.846 2.232-1.796 4.407-3.721 5.799-6.306z"/><path fill="#3254B7" d="M270.26 272.621c.393.239.877.51 1.308.31.176-.106.326-.249.438-.42a15.123 15.123 0 001.857-3.184c.083-.16.13-.336.137-.516 0-.412-.373-.715-.72-.954a26.816 26.816 0 00-5.942-2.785c-1.726-.644-3.53-1.205-5.36-1.044a5.137 5.137 0 00-3.577 1.792c-1.307 1.657.883 2.16 2.256 2.76 3.177 1.424 6.616 2.249 9.603 4.041z"/><path opacity=".1" fill="#000" d="M268.01 284.146c-.041.314.052.631.25.854.173-.962-.054-1.978.125-2.947.262-1.456 1.508-2.554 1.615-4.017-2.283-.508-1.973 4.539-1.99 6.11z"/><path d="M383 233v6.396L356.793 241l-.793-6.403z" opacity=".2" fill="#000"/><path fill="#3F3D56" d="M266.21 243.683c1.67-1.372.704-4.249 1.834-6.091.657-1.008 1.768-1.538 2.859-1.989a12.918 12.918 0 014.173-1.167 4.82 4.82 0 013.942 1.465c.428.49.717 1.087 1.118 1.598a4.25 4.25 0 004.14 1.445c.874-.199 1.78-.868 1.721-1.77a2.505 2.505 0 00-.788-1.419l-1.88-2.1c-2.135-2.387-4.508-4.92-7.642-5.516-2.182-.418-4.416.172-6.519.882-.848.285-1.8.709-2.037 1.577-.158.597.079 1.247-.06 1.85-.269 1.2-1.793 1.604-2.503 2.611-.71 1.008-.493 2.201-.697 3.315-.203 1.113-.795 2.2-.867 3.354-.046.696.302 1.989 1.078 2.24.775.252 1.65-1.113 2.129-.285z"/><path fill="#FED253" d="M285 236.715a20.054 20.054 0 00-3.508-8.092 14.075 14.075 0 00-6.245-5.004 8.872 8.872 0 00-7.775.619 11.376 11.376 0 00-3.885 4.944c-1.708 3.713-2.34 8.251-.356 11.818.792-.972 2.15-.532 3.35-.885 1.504-.433 2.777-1.444 4.208-2.076 4.32-1.923 9.595-.366 14.211-1.324z"/><path opacity=".1" fill="#000" d="M264.21 235.871c-.172-1.288-.285-2.783.675-3.699a.498.498 0 01.398-.172.51.51 0 01.307.258 15.749 15.749 0 011.41 2.633c-1.144-.251-2.333.188-3 1.109M279.29 232.668l-.222-2.634a1.428 1.428 0 01.043-.65c.192-.36.58-.487.9-.295.302.201.552.5.72.864.513.942.938 1.95 1.269 3.003a6.251 6.251 0 00-3 .044M285 327v5.68l-4.473.32H257v-6z"/><path d="M286 327.38V333h-28.168L183 239.42V235h15.687z" fill="#F1C0C0"/><path d="M286 327.38V333h-28.168L183 239.42V235h15.687z" opacity=".1" fill="#000"/><path d="M286 327.38V333h-28.168L183 239.42V235l75.237 92.38z" opacity=".1" fill="#000"/><path fill="#1C1C1D" d="M192.899 420.35c.1.526-.03 1.07-.358 1.5-.328.431-.827.71-1.375.768-1.838.604-3.788 1.202-5.09 2.571-1.303 1.37-1.56 3.908 0 5.02.797.467 1.713.71 2.644.7 2.995.2 6.116.161 8.833-1.073 1.944-.874 3.775-2.365 5.91-2.23 1.105.064 2.281.565 3.266.077.986-.489 1.263-1.851 1.27-2.989a21.563 21.563 0 00-1.091-7c-.1-.308-4.304-.545-4.806-.642l-5.098-.643c-.965-.122-3.048-.829-3.808-.045-.76.785-.297 3.053-.297 3.985zM222.176 404.64a15.51 15.51 0 001.04 3.4c.705 1.766 1.607 3.642 3.332 4.499 1.568.772 3.49.493 5.084-.24a4.182 4.182 0 001.692-1.266c.514-.883.744-1.9.659-2.914 0-2.513-.152-5.109-1.317-7.342-1.001-1.947-2.746-3.622-2.773-5.777l-5.998 1.142c-.321.03-.627.15-.883.344-.19.198-.322.442-.382.708a19.057 19.057 0 00-.454 7.445z"/><path fill="#FBBEBE" d="M152.11 342.529c-.244 2.052-.142 4.252.935 6.024 1.076 1.772 3.345 2.945 5.305 2.238a.775.775 0 00.48-.364.895.895 0 00-.083-.637 9.366 9.366 0 01.2-7.09c.127-.292.403-.637.704-.522a.639.639 0 01.288.293c.31.534.466 1.143.449 1.76a6.508 6.508 0 00-.052 1.69c.122.548.712 1.064 1.224.828.3-.183.51-.48.583-.822 1.43-4.112.782-8.607.129-12.91a.674.674 0 00-.215-.531.681.681 0 00-.548-.177c-3.024-.3-4.677-1.02-6.407 1.779-1.487 2.359-2.993 5.604-2.993 8.44z"/><path fill="#3F3D56" d="M187.872 331.867c-.904 3.785-1.814 7.616-1.872 11.504.016 2.423.197 4.841.542 7.238l.678 5.632c.232 1.899.458 3.791.788 5.67.21.969.324 1.956.342 2.947a15.884 15.884 0 01-.459 2.893 34.056 34.056 0 00-.677 6.048c-.071 3.252.329 6.503.58 9.755.503 6.48.428 12.991-.225 19.457a7.34 7.34 0 001.058 5.014c.383.469.698.99.936 1.548.484 1.489-.645 2.978-.936 4.506-.387 2.482 1.295 4.81 3.757 5.203 5.165.618 10.47.338 15.125 2.718.49-1.444-.58-3.082-.09-4.552.31-.91 1.162-1.502 1.743-2.27a6.643 6.643 0 001.11-3.967 14.59 14.59 0 00-.955-5.378c-.55-1.43-1.337-2.841-1.291-4.376 0-.755.264-1.548-.04-2.244a3.5 3.5 0 00-.832-1.047 13.267 13.267 0 01-3.376-7.706 35.754 35.754 0 01.271-8.545c.316-2.692.742-5.534 2.44-7.635a49.338 49.338 0 011.362-19.021c.168-.572.433-1.236 1.014-1.372a1.44 1.44 0 011.24.494c1.013.956 1.497 2.341 1.936 3.668.484 1.437.975 2.972.607 4.441-.155.65-.465 1.223-.646 1.847a5.513 5.513 0 00.194 3.818c.252.44.41.93.464 1.437-.06.435-.19.857-.387 1.248a5.786 5.786 0 00.536 4.65 16.812 16.812 0 003.015 3.726c-.563 2.496-.417 5.101.42 7.518.121.22.151.48.083.722-.116.247-.413.338-.645.513-.646.534-.246 1.542.187 2.237a51.288 51.288 0 003.918 5.476c1.291 1.554 1.175 4.552 3.099 5.111a5.768 5.768 0 002.453 0c1.898-.292 4.015-.845 4.944-2.536.381-.696.536-1.54 1.13-2.061.594-.52 1.362-.611 1.691-1.236.33-.624-.038-1.443.071-2.165.11-.722.736-1.3.936-2.062.478-1.756-1.555-3.2-1.833-4.994-.4-2.601 2.853-4.552 2.718-7.154-.284-5.65-.465-11.328-.755-16.979a123.33 123.33 0 01-.155-15.21c.226-3.155.645-6.458-.504-9.391-1.652-4.136-6.21-6.458-10.619-6.9-4.409-.442-8.805.611-13.175 1.3a82.668 82.668 0 01-21.916.462z"/><circle r="10.5" cy="259.5" cx="200.5" fill="#FBBEBE"/><path fill="#FBBEBE" d="M196.36 271.537a4.47 4.47 0 01-4.272 2.679c-.38 1.556.53 3.126 1.57 4.351 4.398 5.074 11.219 7.394 17.832 6.064a8.84 8.84 0 003.513-1.453 7.71 7.71 0 002.682-4.604 22.7 22.7 0 00.255-5.415 1.392 1.392 0 00-.288-1 1.447 1.447 0 00-.915-.298c-2.212-.194-4.52-.278-6.464-1.355-1.942-1.077-3.323-3.509-2.387-5.506-.15.311-3.971.46-4.475.525-1.576.22-3.153.467-4.723.753-.754.04-1.5.18-2.217.415-.949.486-.596.246-.373 1.128.333 1.35.824 2.315.262 3.716z"/><path fill="#3F3D56" d="M204.352 277.628a17.285 17.285 0 01-4.184-.465 5.875 5.875 0 01-3.434-2.296c-.483-.732-.797-1.655-1.567-2.067-1.26-.654-2.696.451-3.701 1.465-.916 1-1.977 1.856-3.147 2.539-1.397.739-3.03 1-4.348 1.87a10.942 10.942 0 00-2.611 2.827l-9.25 12.625c-3.715 5.077-6.947 10.526-10.257 15.884-2.865 4.638-4.367 9.976-6.528 14.981a1.678 1.678 0 00-.202 1.007c.078.34.49.615.777.42-.973.967-.118 2.616-.346 3.977a4.881 4.881 0 01-1.554 2.44 12.248 12.248 0 014.309.202 13.195 13.195 0 014.073 1.963c.79-.124.718-1.53 1.306-2.054.352-.308.875-.268 1.338-.36 1.743-.34 2.435-2.44 3.773-3.624 1.117-.988 2.697-1.309 3.878-2.237 1.92-1.512 2.33-4.2 3.336-6.431.855-1.89 2.2-3.54 2.95-5.476.49-1.256.726-2.616 1.424-3.774 1.116-1.871 3.219-2.866 5.223-3.762 1.266-.569 2.611-1.158 3.975-1.066-.071 3.042-.457 6.038.203 9.008.228 1.047.548 2.067.822 3.107 1.247 4.684 1.541 9.565 1.6 14.392 3-.687 6.063-1.056 9.14-1.099 2.421-.072 4.837.242 7.259.197 2.872-.053 5.712-.609 8.584-.805 2.873-.196 5.876 0 8.415 1.308a80.278 80.278 0 01.346-12.43l.692-6.502c.156-1.889.446-3.765.868-5.613.379-1.491.927-2.93 1.345-4.415 1.469-5.234 1.201-10.82.92-16.27-.143-2.8-1.22-5.554-2.487-8.047a21.788 21.788 0 00-1.566-2.669 15.414 15.414 0 00-13.488-6.345c-.332.01-.66.081-.966.21a3.223 3.223 0 00-1.234 1.471 16.013 16.013 0 01-5.686 5.914zM191.174 262.248c.29-.66 1.074-.903 1.553-1.43.919-1.003.505-2.605.647-3.957.233-1.978 1.844-3.633 3.689-4.339a11.71 11.71 0 015.825-.376c.934.07 1.837.376 2.627.89.337.251.647.574.964.805a2.56 2.56 0 003.521-.837c-2.291-2.81-4.828-5.777-8.31-6.64a16.741 16.741 0 00-3.63-.35c-1.612-.033-3.275-.06-4.764.567-2.025.85-3.45 2.809-4.18 4.92a24.331 24.331 0 00-1.016 6.593 25.306 25.306 0 000 4.484c.25 2.037.992 3.979 2.161 5.651.158.26.382.471.647.613 2.951 1.319.026-6.046.266-6.594z"/><path fill="#FED253" d="M210 252.228c-.359-3.126-2.55-5.708-4.877-7.785a17.927 17.927 0 00-6.554-4.015c-2.458-.737-5.288-.578-7.394.916-1.696 1.2-2.772 3.112-3.6 5.037a16.093 16.093 0 00-1.571 7.3c.163 2.51 1.363 5.051 3.501 6.319.77-1.155 2.107-1.752 3.391-2.223A163.931 163.931 0 01210 252.228z"/><path opacity=".1" fill="#000" d="M190.844 251c.248 0 .41.205.535.373a14.936 14.936 0 011.621 2.482c-.908.155-2.467.329-2.917-.31-.24-.323.047-2.576.76-2.545zM205.351 248.963c-.162.138-.35-.144-.35-.348v-2.328a.312.312 0 01.047-.186.333.333 0 01.222-.096c.546-.054.998.36 1.348.756.532.642.995 1.327 1.382 2.046l-2.851-.078"/><path fill="#3F3D56" d="M239.805 290.87a17.034 17.034 0 011.909-1.581c1.799-1.214 3.974-1.694 5.994-2.468 2.02-.774 4.072-2.028 4.858-4.063a9.745 9.745 0 00.376-3.937 3.975 3.975 0 00-.286-1.621 3.21 3.21 0 00-1.026-1.13c-2.74-2.047-6.416-2.211-9.819-2.001a61.023 61.023 0 00-21.697 5.474c-.362.12-.679.35-.909.656a1.894 1.894 0 00-.175.912 15.244 15.244 0 00.734 5.717c.896 2.336 2.74 4.22 3.513 6.602.35 1.07.467 2.205.773 3.281.25 1.112.9 2.09 1.825 2.744 2.565 1.549 4.987-.532 6.766-2.146l7.164-6.439z"/><path fill="#3254B7" d="M205.5 299.96l-3.325-7.173a24.946 24.946 0 01-1.259-3.068c-.38-1.252-.564-2.549-.918-3.807-1.167-4.19-4.112-7.678-5.548-11.784a2.23 2.23 0 00-.538-.992 1.767 1.767 0 00-1.462-.26c-2.007.344-3.574 1.855-5.41 2.711-.853.39-1.771.649-2.624 1.096a3.252 3.252 0 00-1.757 2.07c-.203.992.295 1.945.715 2.911 1.783 3.982 2.19 8.431 2.269 12.79.059 2.93-.092 6.076-1.843 8.43-3.364 4.54-1.213 11.207.046 16.7.15.649.328 1.35.433 2.037.11.86.161 1.727.15 2.594 0 2.912-.163 5.914-1.396 8.554a9.762 9.762 0 003.934 1.102c3.808.48 7.632.818 11.47 1.012 1.203.112 2.416.05 3.6-.181 2.895-.774 4.89-3.39 4.847-6.356.21 1.796.597 3.748 1.915 4.994 1.318 1.245 3.24 1.433 5.03 1.53 5.053.265 10.119.124 15.149-.421.32-.015.636-.087.93-.214.971-.48 1.024-1.803.945-2.867-.144-1.99-.295-3.982-.538-5.96a24.128 24.128 0 01-.314-3.813c.1-1.314.32-2.617.655-3.892.88-4.046 1.574-8.178 1.28-12.322a20.564 20.564 0 01-.125-3.041c.17-2.29 1.39-4.469 1.16-6.745-.655-6.693-1.187-13.561-3.075-20.02-.341-1.155-.774-2.394-1.79-3.055-1.312-.87-3.155-.415-4.657-.966a11.676 11.676 0 01-2-1.174 9.254 9.254 0 00-4.518-1.375c-1.207-.046-2.551.22-3.28 1.18a4.676 4.676 0 00-.655 1.77c-.951 3.957-2.066 7.867-3.18 11.778l-1.07 3.749-2.865 10.065c-.282 1.07-.092 1.4-.38 2.412z"/><path d="M222.362 260L285 326.372V332h-27.93L210 270.055" fill="#F1C0C0"/><path d="M222.362 260L285 326.372V332h-27.93L210 270.055" opacity=".1" fill="#000"/><path d="M210.997 270l.201.072 46.274 57.283H285V333h-27.93L210 270.877z" opacity=".1" fill="#000"/><path fill="#FBBEBE" d="M218.655 270.844c-2.291 1.041-4.838 2.375-5.526 4.88a2.91 2.91 0 00-.085 1.361c.343 1.093 1.298 1.854 2.403 1.913a7.594 7.594 0 003.15-.6l13.52-4.64c.366-.123.785-.307.877-.681a1.21 1.21 0 00-.131-.681c-.419-1.062-.832-3.233-1.709-3.975-.72-.599-2.147-.388-3.018-.374-3.353.027-6.502 1.436-9.48 2.797z"/><path fill="#3F3D56" d="M230.88 274.475a21.536 21.536 0 016.695 1.047 11.924 11.924 0 015.545 3.818c.422.498.722 1.088.876 1.724.13.659 2.26 1.054 1.79 1.501 1.43-.23 1.09.448 2.54.435 1.45-.013 3.018-.389 3.886-1.554a5.12 5.12 0 00.765-3.219 5.521 5.521 0 00-.432-2.278c-.653-1.382-2.155-2.126-3.54-2.764l-11.665-5.379a7.707 7.707 0 00-2.155-.77 7.997 7.997 0 00-1.901.046l-5.284.612a8.004 8.004 0 013.612 7.024"/></g></svg>