<?xml version="1.0" encoding="UTF-8"?>
<svg width="14px" height="14px" viewBox="0 0 14 14" version="1.1" xmlns="http://www.w3.org/2000/svg" xmlns:xlink="http://www.w3.org/1999/xlink">
    <g id="Home-page" stroke="none" stroke-width="1" fill="none" fill-rule="evenodd">
        <g id="HighLevel---landing-with-only-menu-icons" transform="translate(-1246.000000, -80.000000)">
            <g id="Button/Solid" transform="translate(1238.000000, 72.000000)">
                <g id="Group" transform="translate(8.000000, 7.000000)">
                    <g id="upload" transform="translate(0.000000, 1.000000)">
                        <rect id="Rectangle" x="0" y="0" width="14" height="14"></rect>
                        <path d="M7.41549724,1.30103566 L7.45558333,1.34575 L11.4988067,5.41437626 C11.7258843,5.64290805 11.7247054,6.0122524 11.4961736,6.23932997 C11.2852212,6.44894002 10.9542865,6.46405938 10.726019,6.2853987 L10.6712199,6.23669685 L7.58333333,3.129 L7.58333333,11.6640983 C7.58333333,11.9862644 7.3221661,12.2474317 7,12.2474317 C6.70084576,12.2474317 6.45428749,12.0222415 6.42059118,11.7321273 L6.41666667,11.6640983 L6.41666667,3.14533333 L3.37274659,6.23496267 C3.14662679,6.46444216 2.7772906,6.46716572 2.54781111,6.24104593 C2.33598389,6.03231996 2.31736881,5.70156345 2.49360772,5.47142107 L2.54172785,5.41611044 L6.59056175,1.30711892 C6.81668155,1.07763943 7.18601775,1.07491586 7.41549724,1.30103566 Z" id="Combined-Shape" fill="#FFFFFF"></path>
                    </g>
                </g>
            </g>
        </g>
    </g>
</svg>