<svg width="26" height="26" xmlns="http://www.w3.org/2000/svg"><g fill="none" fill-rule="evenodd"><path d="M0 0h26v26H0z"/><path d="M16.066 7.706L13 10.506 11.353 12h.011L8.45 14.665a3.593 3.593 0 01-2.6 1.105c-2.026 0-3.672-1.684-3.672-3.77 0-2.086 1.646-3.77 3.672-3.77.986 0 1.907.39 2.643 1.15l1.224 1.114L11.353 9 9.988 7.762A5.735 5.735 0 005.85 6C2.622 6 0 8.699 0 12s2.622 6 5.85 6c1.56 0 3.033-.625 4.084-1.706L13 13.506l.01.01L14.648 12h-.011l2.914-2.665a3.593 3.593 0 012.6-1.105c2.026 0 3.673 1.684 3.673 3.77 0 2.086-1.647 3.77-3.673 3.77-.975 0-1.907-.39-2.643-1.15l-1.235-1.126-1.636 1.495 1.376 1.249a5.75 5.75 0 004.138 1.75c3.228 0 5.85-2.687 5.85-6C26 8.678 23.378 6 20.15 6c-1.56 0-3.033.625-4.084 1.706z" fill="currentColor" fill-rule="nonzero"/></g></svg>