<svg width="26" height="26" xmlns="http://www.w3.org/2000/svg"><g fill="none" fill-rule="evenodd"><path d="M0 0h26v26H0z"/><g fill="currentColor"><path d="M11.659 4.1v2.464H6.116c-.632 0-1.153.476-1.224 1.088l-.008.144v11.088c0 .632.476 1.153 1.088 1.224l.144.008h11.088c.632 0 1.153-.476 1.224-1.088l.008-.144-.001-5.544H20.9v5.544a3.696 3.696 0 01-3.696 3.696H6.116a3.696 3.696 0 01-3.696-3.696V7.796A3.696 3.696 0 016.116 4.1h5.543z" fill-rule="nonzero"/><path d="M20.562 6.022l.713-.713-1.425-1.425.718-.719a1 1 0 011.414 0l.012.012a1 1 0 010 1.414l-7.748 7.747a.5.5 0 01-.234.132l-1.629.4a.1.1 0 01-.12-.122l.424-1.606a.5.5 0 01.13-.226l6.32-6.32 1.425 1.426z"/></g></g></svg>