<?xml version="1.0" encoding="UTF-8"?>
<svg width="26px" height="26px" viewBox="0 0 26 26" version="1.1" xmlns="http://www.w3.org/2000/svg" xmlns:xlink="http://www.w3.org/1999/xlink">
    <g id="Home-page" stroke="none" stroke-width="1" fill="none" fill-rule="evenodd">
        <g id="HighLevel---Search-hover" transform="translate(-24.000000, -241.000000)">
            <g id="Group-4" transform="translate(24.000000, 241.000000)">
                <rect id="Rectangle" x="0" y="0" width="26" height="26"></rect>
                <path d="M21,10.9828847 C21,14.0368393 18.2114433,16.9704673 12.6343298,19.7837687 C12.4912866,19.855925 12.346409,19.9280021 12.199697,20 C12.1930584,19.9971942 12.1880097,19.9945377 12.1829633,19.9918812 L12.199697,20 C12.183995,19.9923418 12.1642906,19.9827626 12.1418223,19.9718358 C12.087133,19.9452394 12.0154637,19.905269 11.9452875,19.8656645 C6.63222167,17.0236453 4,14.0710116 4,10.9828315 C4,6.32709373 8.66590794,4.4650255 12.1989671,7.43466978 C15.9910913,4.4647821 21,6.3268134 21,10.9828847 Z" id="Combined-Shape" stroke="currentColor" stroke-width="2"></path>
            </g>
        </g>
    </g>
</svg>