<?xml version="1.0" encoding="UTF-8"?>
<svg width="26px" height="26px" viewBox="0 0 26 26" version="1.1" xmlns="http://www.w3.org/2000/svg" xmlns:xlink="http://www.w3.org/1999/xlink">
    <title>1A07658A-AFEA-4155-AD54-272E509A6D6B</title>
    <g id="Home-page" stroke="none" stroke-width="1" fill="none" fill-rule="evenodd">
        <g id="HighLevel---Search-hover" transform="translate(-24.000000, -299.000000)">
            <g id="Group-8" transform="translate(24.000000, 299.000000)">
                <rect id="Rectangle" x="0" y="0" width="26" height="26"></rect>
                <g id="Group-5" transform="translate(2.000000, 2.000000)" fill="#7488CC">
                    <path d="M9.659,2.1 L9.659,4.564 L4.116,4.564 C3.48418625,4.564 2.96345518,5.03960151 2.89228856,5.65232277 L2.884,5.796 L2.884,16.884 C2.884,17.5158138 3.35960151,18.0365448 3.97232277,18.1077114 L4.116,18.116 L15.204,18.116 C15.8358138,18.116 16.3565448,17.6403985 16.4277114,17.0276772 L16.436,16.884 L16.435,11.34 L18.9,11.34 L18.9,16.884 C18.9,18.9252444 17.2452444,20.58 15.204,20.58 L4.116,20.58 C2.07475556,20.58 0.42,18.9252444 0.42,16.884 L0.42,5.796 C0.42,3.75475556 2.07475556,2.1 4.116,2.1 L9.659,2.1 Z" id="Combined-Shape" fill-rule="nonzero"></path>
                    <path d="M18.9699526,7.02208659 L19.9779526,7.02208659 L19.9779526,5.00608659 L20.9939526,5.00608659 C21.5462374,5.00608659 21.9939526,5.45380184 21.9939526,6.00608659 L21.9939526,6.02208659 C21.9939526,6.57437134 21.5462374,7.02208659 20.9939526,7.02208659 L10.0375107,7.02208659 C9.94621672,7.02208659 9.85666509,6.99709127 9.77856767,6.94981137 L8.34374472,6.0811747 C8.29649955,6.05257264 8.28138631,5.99108631 8.30998837,5.94384113 C8.31865826,5.92952013 8.33078473,5.9176049 8.34525586,5.90918799 L9.78139951,5.07387784 C9.85773807,5.02947673 9.94447472,5.00608659 10.0327869,5.00608659 L18.9699526,5.00608659 L18.9699526,7.02208659 Z" id="Combined-Shape" transform="translate(15.144736, 6.014087) rotate(-45.000000) translate(-15.144736, -6.014087) "></path>
                </g>
            </g>
        </g>
    </g>
</svg>